<svg id="Capa_1" enable-background="new 0 0 512 512" height="512" viewBox="0 0 512 512" width="512" xmlns="http://www.w3.org/2000/svg" xmlns:xlink="http://www.w3.org/1999/xlink"><linearGradient id="SVGID_1_" gradientUnits="userSpaceOnUse" x1="180.5" x2="180.5" y1="512" y2="211"><stop offset="0" stop-color="#fd3a84"/><stop offset="1" stop-color="#ffa68d"/></linearGradient><linearGradient id="SVGID_2_" gradientUnits="userSpaceOnUse" x1="332.077" x2="332.077" y1="301" y2="0"><stop offset="0" stop-color="#ffc2cc"/><stop offset="1" stop-color="#fff2f4"/></linearGradient><g><g><g><path d="m353.092 274.188c-2.991-7.813-88.942-63.42-96.016-62.984-27.942 1.714-52.448 14.389-70.868 36.656-1.806 2.183-3.468 4.354-4.992 6.478-1.833-2.624-3.868-5.307-6.117-7.985-19.425-23.128-45.614-35.353-75.734-35.353-27.451 0-52.828 11.116-71.456 31.3-17.998 19.501-27.909 45.406-27.909 72.942 0 26.744 9.435 50.06 29.691 73.379 17.648 20.316 41.819 39.208 72.421 63.124 20.737 16.208 44.241 34.577 69.641 56.59 2.819 2.443 6.321 3.665 9.824 3.665s7.005-1.222 9.824-3.665c24.189-20.965 46.687-38.71 66.535-54.368 30.908-24.381 55.321-43.639 73.138-64.312 20.417-23.689 29.926-47.334 29.926-74.413 0-13.154-2.809-27.734-7.908-41.054z" fill="url(#SVGID_1_)"/></g></g><g><g><path d="m490.492 38.527c-12.7-17.576-36.316-38.527-76.704-38.527-30.054 0-56.403 12.181-76.202 35.225-2.34 2.724-4.458 5.454-6.365 8.12-1.834-2.626-3.87-5.312-6.122-7.992-19.425-23.128-45.614-35.353-75.734-35.353-27.427 0-52.486 11.188-70.563 31.502-17.185 19.313-26.648 45.146-26.648 72.74 0 57.286 40.79 89.495 102.532 138.249 19.956 15.757 42.573 33.617 67.066 54.844 2.819 2.443 6.321 3.665 9.824 3.665s7.005-1.222 9.824-3.665c24.608-21.327 47.519-39.313 67.73-55.182 30.785-24.169 55.102-43.259 72.906-63.818 20.443-23.604 29.964-47.147 29.964-74.093 0-22.51-8.04-47.077-21.508-65.715z" fill="url(#SVGID_2_)"/></g></g></g></svg>